# Blender 4.0.2
# www.blender.org
mtllib magic_tree_1.mtl
o Special_Tree_1
v -3.476074 -0.477400 -3.583953
v -3.622231 1.416219 -3.528799
v -3.292496 -0.477400 -3.477964
v -3.486418 1.416219 -3.450387
v -3.292496 -0.477400 -3.265986
v -3.486418 1.416219 -3.293563
v -3.476074 -0.477400 -3.159998
v -3.622231 1.416219 -3.215152
v -3.659652 -0.477400 -3.265986
v -3.758044 1.416219 -3.293563
v -3.659652 -0.477400 -3.477964
v -3.758044 1.416219 -3.450387
v -3.622231 1.084235 -2.925792
v -3.089113 1.491504 -2.538464
v -3.825860 1.491504 -2.299076
v -4.281205 1.491504 -2.925792
v -3.825860 1.491504 -3.552507
v -3.089113 1.491504 -3.313120
v -3.418602 2.150482 -2.299076
v -4.155349 2.150482 -2.538464
v -4.155349 2.150482 -3.313120
v -3.418602 2.150482 -3.552507
v -2.963257 2.150482 -2.925792
v -3.622231 2.557751 -2.925792
v -3.378884 1.080256 -3.807444
v -2.842886 1.489724 -3.418024
v -3.583612 1.489724 -3.177344
v -4.041417 1.489724 -3.807444
v -3.583612 1.489724 -4.437544
v -2.842886 1.489724 -4.196864
v -3.174155 2.152261 -3.177344
v -3.914881 2.152261 -3.418024
v -3.914881 2.152261 -4.196864
v -3.174155 2.152261 -4.437544
v -2.716350 2.152261 -3.807444
v -3.378884 2.561730 -3.807444
v -3.833688 1.725493 -3.311374
v -3.392615 2.062445 -2.990920
v -4.002159 2.062445 -2.792864
v -4.378887 2.062445 -3.311374
v -4.002159 2.062445 -3.829884
v -3.392615 2.062445 -3.631828
v -3.665216 2.607647 -2.792864
v -4.274760 2.607647 -2.990920
v -4.274760 2.607647 -3.631828
v -3.665216 2.607647 -3.829884
v -3.288488 2.607647 -3.311374
v -3.833688 2.944599 -3.311374
v -3.897358 1.143200 -3.401431
v -3.552224 1.452666 -3.246206
v -4.014400 1.506864 -3.096422
v -4.308490 1.398237 -3.471515
v -4.028059 1.276904 -3.853118
v -3.560666 1.310544 -3.713866
v -3.750051 1.898965 -3.220353
v -4.217445 1.865325 -3.359605
v -4.225887 1.723203 -3.827265
v -3.763711 1.669005 -3.977050
v -3.469621 1.777632 -3.601956
v -3.880753 2.032669 -3.672040
vn 0.4990 0.0637 -0.8643
vn 0.9948 0.1019 -0.0000
vn 0.4990 0.0637 0.8643
vn -0.5000 -0.0134 0.8659
vn -0.0000 1.0000 -0.0000
vn -0.9987 -0.0519 -0.0000
vn -0.5000 -0.0134 -0.8659
vn -0.0000 -1.0000 -0.0000
vn 0.1876 -0.7947 0.5774
vn 0.6071 -0.7947 -0.0000
vn -0.4911 -0.7947 0.3568
vn -0.4911 -0.7947 -0.3568
vn 0.1876 -0.7947 -0.5774
vn 0.9822 -0.1876 -0.0000
vn 0.3035 -0.1876 0.9342
vn -0.7946 -0.1876 0.5774
vn -0.7946 -0.1876 -0.5774
vn 0.3035 -0.1876 -0.9342
vn 0.7946 0.1876 0.5774
vn -0.3035 0.1876 0.9342
vn -0.9822 0.1876 -0.0000
vn -0.3035 0.1876 -0.9342
vn 0.7946 0.1876 -0.5774
vn 0.4911 0.7947 0.3568
vn -0.1876 0.7947 0.5774
vn -0.6071 0.7947 -0.0000
vn -0.1876 0.7947 -0.5774
vn 0.4911 0.7947 -0.3568
vn 0.1833 -0.5964 0.7815
vn 0.5927 -0.7735 0.2244
vn -0.4990 -0.6455 0.5782
vn -0.5113 -0.8530 -0.1045
vn 0.1634 -0.9321 -0.3232
vn 0.9786 -0.2012 0.0435
vn 0.3162 0.0854 0.9448
vn -0.7878 0.0060 0.6159
vn -0.8077 -0.3297 -0.4887
vn 0.2840 -0.4577 -0.8425
vn 0.8077 0.3297 0.4887
vn -0.2840 0.4577 0.8425
vn -0.9786 0.2012 -0.0435
vn -0.3162 -0.0854 -0.9448
vn 0.7878 -0.0060 -0.6159
vn 0.5113 0.8530 0.1045
vn -0.1634 0.9321 0.3232
vn -0.5927 0.7735 -0.2244
vn -0.1833 0.5964 -0.7815
vn 0.4990 0.6455 -0.5782
vt 0.213871 0.793407
vt 0.210057 0.936334
vt 0.204634 0.931560
vt 0.206541 0.786954
vt 0.193789 0.931560
vt 0.191882 0.786954
vt 0.188367 0.936334
vt 0.184553 0.793407
vt 0.213871 0.932339
vt 0.217685 0.789420
vt 0.223107 0.786954
vt 0.221200 0.929006
vt 0.252581 0.855597
vt 0.261973 0.868293
vt 0.261973 0.893684
vt 0.252581 0.906380
vt 0.243189 0.893684
vt 0.243189 0.868293
vt 0.233952 0.786954
vt 0.235859 0.929006
vt 0.239375 0.789420
vt 0.243189 0.932339
vt 0.243189 0.838436
vt 0.243189 0.804114
vt 0.255884 0.786954
vt 0.268579 0.804114
vt 0.268579 0.838436
vt 0.255884 0.855597
vt 0.346792 0.625512
vt 0.361016 0.645598
vt 0.340238 0.656544
vt 0.361016 0.608255
vt 0.327396 0.625966
vt 0.340238 0.596122
vt 0.382190 0.656544
vt 0.382190 0.674494
vt 0.374139 0.672681
vt 0.413845 0.565767
vt 0.418824 0.535373
vt 0.423217 0.546983
vt 0.329632 0.646332
vt 0.329632 0.608989
vt 0.336768 0.656544
vt 0.336768 0.694113
vt 0.327396 0.675329
vt 0.363253 0.643677
vt 0.361016 0.626700
vt 0.373859 0.656544
vt 0.423217 0.584552
vt 0.374139 0.677703
vt 0.367308 0.670234
vt 0.374139 0.656544
vt 0.332374 0.705723
vt 0.363253 0.606334
vt 0.373859 0.596122
vt 0.380413 0.627154
vt 0.394637 0.644411
vt 0.394637 0.607068
vt 0.346897 0.564923
vt 0.361198 0.585117
vt 0.340307 0.596122
vt 0.361198 0.547572
vt 0.327396 0.565379
vt 0.340307 0.535373
vt 0.365914 0.656544
vt 0.367308 0.674435
vt 0.359143 0.674435
vt 0.395000 0.565931
vt 0.400005 0.535373
vt 0.404423 0.547045
vt 0.329644 0.585854
vt 0.329644 0.548310
vt 0.413845 0.535373
vt 0.413845 0.573145
vt 0.404423 0.554259
vt 0.363447 0.583185
vt 0.361198 0.566116
vt 0.374110 0.596122
vt 0.404423 0.584817
vt 0.359143 0.677817
vt 0.352275 0.670308
vt 0.359143 0.656544
vt 0.409428 0.584817
vt 0.363447 0.545640
vt 0.374110 0.535373
vt 0.380700 0.566572
vt 0.395000 0.583923
vt 0.395000 0.546378
vt 0.410685 0.620438
vt 0.422453 0.637056
vt 0.405262 0.646112
vt 0.422453 0.606160
vt 0.394637 0.620813
vt 0.405262 0.596122
vt 0.388852 0.671266
vt 0.388852 0.686117
vt 0.382190 0.684618
vt 0.336768 0.681690
vt 0.340886 0.656544
vt 0.344521 0.666149
vt 0.396488 0.637663
vt 0.396488 0.606768
vt 0.352275 0.656544
vt 0.352275 0.687627
vt 0.344521 0.672086
vt 0.396488 0.685456
vt 0.394637 0.671411
vt 0.405262 0.696102
vt 0.344521 0.697232
vt 0.388910 0.671266
vt 0.382190 0.671266
vt 0.383338 0.656544
vt 0.348640 0.697232
vt 0.396488 0.654561
vt 0.410685 0.671786
vt 0.422453 0.686063
vt 0.422453 0.655168
vt 0.000000 0.000000
vt 1.000000 0.000000
vt 1.000000 1.000000
s 0
usemtl Magic_Tree_1
f 1/1/1 2/2/1 4/3/1 3/4/1
f 3/4/2 4/3/2 6/5/2 5/6/2
f 5/6/3 6/5/3 8/7/3 7/8/3
f 7/9/4 8/10/4 10/11/4 9/12/4
f 4/13/5 2/14/5 12/15/5 10/16/5 8/17/5 6/18/5
f 9/12/6 10/11/6 12/19/6 11/20/6
f 11/20/7 12/19/7 2/21/7 1/22/7
f 1/23/8 3/24/8 5/25/8 7/26/8 9/27/8 11/28/8
f 13/29/9 14/30/9 15/31/9
f 14/30/10 13/29/10 18/32/10
f 13/29/11 15/31/11 16/33/11
f 13/29/12 16/33/12 17/34/12
f 13/29/13 17/34/13 18/32/13
f 14/35/14 18/36/14 23/37/14
f 15/38/15 14/39/15 19/40/15
f 16/33/16 15/31/16 20/41/16
f 17/34/17 16/33/17 21/42/17
f 18/43/18 17/44/18 22/45/18
f 14/46/19 23/47/19 19/48/19
f 15/38/20 19/40/20 20/49/20
f 16/50/21 20/51/21 21/52/21
f 17/44/22 21/53/22 22/45/22
f 18/54/23 22/55/23 23/47/23
f 19/48/24 23/47/24 24/56/24
f 20/57/25 19/48/25 24/56/25
f 21/58/26 20/57/26 24/56/26
f 22/55/27 21/58/27 24/56/27
f 23/47/28 22/55/28 24/56/28
f 25/59/9 26/60/9 27/61/9
f 26/60/10 25/59/10 30/62/10
f 25/59/11 27/61/11 28/63/11
f 25/59/12 28/63/12 29/64/12
f 25/59/13 29/64/13 30/62/13
f 26/65/14 30/66/14 35/67/14
f 27/68/15 26/69/15 31/70/15
f 28/63/16 27/61/16 32/71/16
f 29/64/17 28/63/17 33/72/17
f 30/73/18 29/74/18 34/75/18
f 26/76/19 35/77/19 31/78/19
f 27/68/20 31/70/20 32/79/20
f 28/80/21 32/81/21 33/82/21
f 29/74/22 33/83/22 34/75/22
f 30/84/23 34/85/23 35/77/23
f 31/78/24 35/77/24 36/86/24
f 32/87/25 31/78/25 36/86/25
f 33/88/26 32/87/26 36/86/26
f 34/85/27 33/88/27 36/86/27
f 35/77/28 34/85/28 36/86/28
f 37/89/9 38/90/9 39/91/9
f 38/90/10 37/89/10 42/92/10
f 37/89/11 39/91/11 40/93/11
f 37/89/12 40/93/12 41/94/12
f 37/89/13 41/94/13 42/92/13
f 38/95/14 42/96/14 47/97/14
f 39/98/15 38/99/15 43/100/15
f 40/93/16 39/91/16 44/101/16
f 41/94/17 40/93/17 45/102/17
f 42/103/18 41/104/18 46/105/18
f 38/106/19 47/107/19 43/108/19
f 39/98/20 43/100/20 44/109/20
f 40/110/21 44/111/21 45/112/21
f 41/104/22 45/113/22 46/105/22
f 42/114/23 46/91/23 47/107/23
f 43/108/24 47/107/24 48/115/24
f 44/116/25 43/108/25 48/115/25
f 45/117/26 44/116/26 48/115/26
f 46/91/27 45/117/27 48/115/27
f 47/107/28 46/91/28 48/115/28
f 49/118/29 50/119/29 51/120/29
f 50/118/30 49/119/30 54/120/30
f 49/118/31 51/119/31 52/120/31
f 49/118/32 52/119/32 53/120/32
f 49/118/33 53/119/33 54/120/33
f 50/118/34 54/119/34 59/120/34
f 51/118/35 50/119/35 55/120/35
f 52/118/36 51/119/36 56/120/36
f 53/118/37 52/119/37 57/120/37
f 54/118/38 53/119/38 58/120/38
f 50/118/39 59/119/39 55/120/39
f 51/118/40 55/119/40 56/120/40
f 52/118/41 56/119/41 57/120/41
f 53/118/42 57/119/42 58/120/42
f 54/118/43 58/119/43 59/120/43
f 55/118/44 59/119/44 60/120/44
f 56/118/45 55/119/45 60/120/45
f 57/118/46 56/119/46 60/120/46
f 58/118/47 57/119/47 60/120/47
f 59/118/48 58/119/48 60/120/48
